<svg version="1.1" xmlns="http://www.w3.org/2000/svg" xmlns:xlink="http://www.w3.org/1999/xlink" width="48" height="48"><defs><linearGradient x1="16.40102" y1="15.79335" x2="54.9833" y2="53.89775" gradientUnits="userSpaceOnUse" id="color-1"><stop offset="0" stop-color="#000000" stop-opacity="0.26"></stop><stop offset="1" stop-color="#000000" stop-opacity="0"></stop></linearGradient><filter id="dropshadow-base"><feColorMatrix type="matrix" values="0 0 0 0 0  0 0 0 0 0  0 0 0 0 0  0 0 0 .8 0"></feColorMatrix> <feOffset dx="0" dy="1"></feOffset> <feGaussianBlur stdDeviation="1"></feGaussianBlur> <feComposite in="SourceGraphic"></feComposite></filter><filter id="dropshadow-banner" x="-10%" y="-10%" width="120%" height="130%"><feColorMatrix type="matrix" values="0 0 0 0 0  0 0 0 0 0  0 0 0 0 0  0 0 0 .4 0"></feColorMatrix> <feOffset dx="0" dy="1"></feOffset> <feGaussianBlur stdDeviation="0.5"></feGaussianBlur> <feComposite in="SourceGraphic"></feComposite></filter></defs><g fill="none" fill-rule="nonzero" stroke="none" stroke-width="none" stroke-linecap="butt" stroke-linejoin="miter" stroke-miterlimit="10" stroke-dasharray="" stroke-dashoffset="0" font-family="none" font-weight="none" font-size="none" text-anchor="none" style="mix-blend-mode: normal"><path d="M2,24c0,-12.15026 9.84974,-22 22,-22c12.15026,0 22,9.84974 22,22c0,12.15026 -9.84974,22 -22,22c-12.15026,0 -22,-9.84974 -22,-22z" id="base 1 5" fill="#86addb" stroke-width="1"></path><path d="M16.87732,26.78041c-0.29446,-0.29446 -0.47629,-0.70155 -0.47629,-1.15206c0,-0.90102 0.72733,-1.62835 1.62835,-1.62835c0.25065,0 0.48786,0.05628 0.69971,0.15694l-2.32806,-2.32806l1.62835,-4.88505h11.94124l2.64451,2.64451l-1.103,-3.17644c-0.08189,-0.23567 -0.21595,-0.44635 -0.38812,-0.61853l14.08257,14.08257c-1.67576,6.06124 -5.88047,11.07238 -11.40722,13.82653z" fill="url(#color-1)" stroke-width="1"></path><path d="M31.51213,16.41188c-0.22254,-0.64048 -0.83046,-1.09642 -1.54151,-1.09642h-11.94124c-0.71105,0 -1.31896,0.45594 -1.54151,1.09642l-2.25798,6.50255v8.68454c0,0.59706 0.48851,1.08557 1.08557,1.08557h1.08557c0.60249,0 1.08557,-0.48851 1.08557,-1.08557v-1.08557h13.02681v1.08557c0,0.59706 0.48851,1.08557 1.08557,1.08557h1.08557c0.60249,0 1.08557,-0.48851 1.08557,-1.08557v-8.68454zM18.02938,27.2567c-0.90102,0 -1.62835,-0.72733 -1.62835,-1.62835c0,-0.90102 0.72733,-1.62835 1.62835,-1.62835c0.90102,0 1.62835,0.72733 1.62835,1.62835c0,0.90102 -0.72733,1.62835 -1.62835,1.62835zM29.97062,27.2567c-0.90102,0 -1.62835,-0.72733 -1.62835,-1.62835c0,-0.90102 0.72733,-1.62835 1.62835,-1.62835c0.90102,0 1.62835,0.72733 1.62835,1.62835c0,0.90102 -0.72733,1.62835 -1.62835,1.62835zM16.40103,21.82886l1.62835,-4.88505h11.94124l1.62835,4.88505z" fill="none" stroke-width="0"></path><path d="M33.77011,22.91443v8.68454c0,0.59706 -0.48308,1.08557 -1.08557,1.08557h-1.08557c-0.59706,0 -1.08557,-0.48851 -1.08557,-1.08557v-1.08557h-13.02681v1.08557c0,0.59706 -0.48308,1.08557 -1.08557,1.08557h-1.08557c-0.59706,0 -1.08557,-0.48851 -1.08557,-1.08557v-8.68454l2.25798,-6.50255c0.22254,-0.64048 0.83046,-1.09642 1.54151,-1.09642h11.94124c0.71105,0 1.31896,0.45594 1.54151,1.09642zM19.65773,25.62835c0,-0.90102 -0.72733,-1.62835 -1.62835,-1.62835c-0.90102,0 -1.62835,0.72733 -1.62835,1.62835c0,0.90102 0.72733,1.62835 1.62835,1.62835c0.90102,0 1.62835,-0.72733 1.62835,-1.62835zM31.59897,25.62835c0,-0.90102 -0.72733,-1.62835 -1.62835,-1.62835c-0.90102,0 -1.62835,0.72733 -1.62835,1.62835c0,0.90102 0.72733,1.62835 1.62835,1.62835c0.90102,0 1.62835,-0.72733 1.62835,-1.62835zM31.59897,21.82886l-1.62835,-4.88505h-11.94124l-1.62835,4.88505z" fill="#ffffff" stroke-width="0"></path><path d="M2,24c0,-12.15026 9.84974,-22 22,-22c12.15026,0 22,9.84974 22,22c0,12.15026 -9.84974,22 -22,22c-12.15026,0 -22,-9.84974 -22,-22z" id="base 1 1 1" fill="none" stroke-width="1"></path><g fill="#000000" stroke-width="1" font-family="Roboto, sans-serif" font-weight="400" font-size="14" text-anchor="start"></g><rect x="2" y="2" width="44" height="22" fill="none" stroke-width="1"></rect><path d="M2,24v-22h44v22z" fill="none" stroke-width="1"></path><path d="M2,24v-22h44v22z" fill="none" stroke-width="1"></path><path d="M2,24v-22h44v22z" fill="none" stroke-width="1"></path><path d="M2,24v-22h44v22z" fill="none" stroke-width="1"></path></g></svg>